<?xml version="1.0" standalone="no"?>
<!DOCTYPE svg PUBLIC "-//W3C//DTD SVG 20010904//EN"
 "http://www.w3.org/TR/2001/REC-SVG-20010904/DTD/svg10.dtd">
<svg version="1.0" xmlns="http://www.w3.org/2000/svg"
 width="3000.000000pt" height="3000.000000pt" viewBox="0 0 3000.000000 3000.000000"
 preserveAspectRatio="xMidYMid meet">
<metadata>
Created by potrace 1.14, written by Peter Selinger 2001-2017
</metadata>
<g transform="translate(0.000000,3000.000000) scale(0.100000,-0.100000)"
fill="#000000" stroke="none">
<path d="M14667 21664 c-1 -1 -65 -5 -142 -8 -176 -9 -334 -22 -480 -41 -16
-2 -68 -9 -115 -15 -47 -5 -94 -12 -105 -14 -11 -2 -42 -7 -68 -10 -48 -7 -67
-11 -117 -21 -14 -2 -41 -7 -60 -10 -137 -23 -474 -103 -655 -155 -176 -52
-526 -170 -590 -199 -11 -6 -92 -40 -180 -77 -749 -313 -1462 -792 -2045
-1374 -161 -161 -283 -291 -356 -380 -16 -19 -31 -37 -34 -40 -4 -4 -68 -81
-107 -130 -61 -75 -171 -223 -228 -305 -38 -55 -72 -102 -75 -105 -3 -3 -28
-40 -56 -83 -27 -43 -56 -89 -64 -102 -165 -262 -355 -624 -466 -887 -14 -35
-34 -81 -44 -103 -20 -44 -96 -245 -141 -370 -56 -161 -134 -429 -194 -675 -8
-33 -64 -307 -68 -335 -3 -16 -8 -46 -11 -65 -22 -126 -41 -257 -52 -352 -3
-29 -7 -69 -10 -88 -2 -19 -6 -69 -9 -110 -3 -41 -8 -84 -10 -95 -9 -42 -19
-360 -19 -580 0 -262 9 -488 28 -665 3 -30 8 -82 11 -115 6 -62 39 -299 55
-395 5 -30 12 -71 15 -90 3 -19 10 -53 15 -75 5 -22 11 -56 14 -75 8 -54 82
-362 116 -485 56 -200 179 -572 219 -660 5 -11 22 -51 37 -90 69 -180 212
-487 310 -665 23 -41 55 -102 73 -135 18 -33 36 -67 41 -75 5 -8 51 -82 101
-165 117 -190 261 -402 374 -549 50 -65 236 -297 250 -312 5 -6 39 -44 75 -85
200 -228 477 -500 700 -689 29 -25 58 -50 64 -55 6 -6 65 -53 131 -104 66 -51
131 -101 145 -112 96 -75 453 -319 467 -319 3 0 19 -10 36 -22 18 -13 41 -28
52 -34 11 -6 63 -35 115 -66 173 -100 385 -210 535 -278 28 -13 79 -36 115
-52 99 -45 299 -124 455 -180 132 -48 146 -51 235 -50 182 0 292 73 345 227
14 43 16 104 15 505 -4 1058 -6 1289 -11 1294 -3 3 -41 -1 -85 -8 -44 -8 -111
-17 -149 -21 -39 -4 -78 -9 -88 -11 -122 -22 -568 -22 -747 1 -19 3 -54 7 -78
10 -24 3 -66 10 -95 16 -29 6 -63 13 -77 15 -14 3 -72 19 -129 35 -240 70
-436 178 -586 324 -136 133 -204 234 -270 401 -46 115 -107 256 -116 269 -4 6
-25 44 -47 85 -115 221 -244 403 -377 535 -71 71 -194 163 -235 177 -24 9
-130 97 -191 159 -159 163 -109 261 140 273 180 8 460 -81 666 -213 205 -132
343 -277 491 -521 139 -228 257 -361 462 -517 89 -68 304 -159 441 -188 140
-29 322 -38 450 -23 110 13 150 18 163 23 7 2 24 6 38 9 101 18 277 73 382
119 52 23 57 29 63 64 15 84 59 252 86 328 16 44 30 85 32 90 6 25 103 207
143 266 24 36 73 98 109 136 l65 71 -63 7 c-34 4 -69 8 -77 10 -8 1 -46 6 -85
9 -67 7 -98 11 -167 20 -18 3 -55 8 -83 11 -27 4 -117 18 -200 31 -82 14 -166
27 -185 30 -28 5 -215 44 -280 59 -234 53 -555 169 -727 261 -127 68 -151 82
-219 130 -349 242 -582 530 -748 926 -64 153 -140 398 -161 518 -3 19 -10 53
-15 75 -10 43 -29 158 -36 215 -2 19 -6 46 -9 60 -2 14 -7 57 -10 95 -3 39 -8
88 -10 110 -15 135 -23 637 -11 730 2 17 7 59 10 95 44 426 189 752 500 1125
80 96 119 140 127 143 4 2 -4 36 -17 75 -42 124 -53 169 -86 360 -18 109 -22
172 -22 357 -1 295 17 465 71 675 8 33 16 67 18 75 12 51 75 244 100 303 18
45 58 58 178 58 356 2 940 -246 1631 -694 l108 -71 42 12 c58 17 463 109 511
116 22 4 78 13 125 21 47 7 110 17 140 20 30 4 64 9 75 11 26 5 106 14 260 29
273 27 922 27 1150 1 17 -2 59 -7 95 -10 110 -11 261 -30 350 -46 30 -5 71
-12 90 -15 33 -5 172 -30 215 -39 87 -17 343 -80 357 -87 33 -17 60 -8 146 49
48 33 137 89 197 126 61 36 117 71 125 76 114 70 474 257 613 317 146 62 351
134 422 147 11 2 38 9 60 14 113 30 337 32 382 4 12 -8 73 -168 99 -261 20
-73 52 -199 58 -231 14 -74 26 -139 31 -175 3 -23 7 -50 9 -62 9 -45 19 -202
20 -317 3 -263 -47 -594 -119 -779 -20 -50 -20 -49 18 -88 57 -60 197 -228
268 -325 238 -321 359 -624 397 -999 14 -138 4 -711 -13 -800 -2 -11 -7 -47
-10 -80 -4 -33 -8 -69 -10 -80 -2 -11 -7 -42 -10 -70 -18 -151 -83 -422 -140
-588 -269 -775 -792 -1236 -1675 -1476 -173 -47 -551 -120 -755 -147 -27 -3
-57 -8 -65 -9 -9 -2 -43 -6 -75 -10 -33 -4 -71 -8 -85 -10 -14 -2 -52 -6 -85
-10 -33 -3 -73 -8 -90 -10 -90 -12 -130 -17 -132 -19 -1 0 27 -31 63 -68 79
-83 159 -200 214 -314 44 -92 114 -292 124 -359 4 -22 11 -56 16 -75 5 -19 11
-55 14 -80 4 -25 8 -56 11 -70 16 -95 19 -617 11 -2160 -2 -353 1 -508 9 -540
29 -112 86 -183 183 -228 50 -23 70 -27 162 -27 89 0 118 4 190 29 109 36 376
140 458 177 35 16 65 29 67 29 13 0 356 168 470 230 197 107 571 336 605 370
3 3 28 20 55 39 46 31 179 129 215 158 8 6 60 47 115 90 55 44 107 86 115 94
9 8 45 39 80 69 210 177 547 518 745 755 37 44 77 91 88 105 56 65 272 359
354 481 73 109 238 377 284 461 5 10 30 55 55 100 81 145 253 509 314 663 4
11 15 36 23 55 50 114 189 516 227 655 72 266 94 355 124 495 37 175 74 382
92 515 3 28 8 58 9 67 2 9 7 48 10 85 4 37 9 75 10 83 2 8 6 56 10 105 4 50 9
104 11 120 25 205 24 810 -1 1120 -3 33 -7 83 -9 110 -3 28 -7 73 -11 100 -3
28 -11 86 -16 130 -12 94 -13 99 -35 230 -17 103 -20 122 -29 165 -2 14 -7 39
-10 55 -3 17 -16 80 -30 140 -15 61 -28 117 -30 126 -65 293 -226 770 -351
1047 -13 29 -24 55 -24 58 0 6 -87 188 -141 297 -65 129 -129 245 -201 366
-37 63 -68 116 -68 118 0 2 -50 79 -111 171 -361 541 -746 976 -1245 1403 -66
57 -156 131 -200 164 -43 33 -81 62 -84 65 -11 13 -260 190 -330 236 -41 27
-76 52 -78 57 -2 4 -8 7 -13 7 -6 0 -22 8 -37 19 -116 80 -361 220 -567 325
-144 74 -211 106 -395 189 -191 86 -772 295 -871 312 -15 3 -41 10 -56 16 -30
11 -262 70 -378 95 -38 9 -79 18 -90 20 -11 3 -31 6 -45 8 -14 2 -74 13 -135
24 -107 20 -263 45 -355 57 -25 3 -61 7 -80 10 -111 14 -266 28 -480 41 -93 6
-637 13 -643 8z"/>
<path d="M10572 12400 c-73 -30 -2 -140 91 -140 62 0 90 66 45 107 -47 42 -87
52 -136 33z"/>
<path d="M10863 12169 c-70 -26 -41 -150 43 -185 50 -21 80 -17 104 13 56 71
-58 206 -147 172z"/>
<path d="M11116 11793 c-22 -22 -27 -34 -23 -63 11 -89 78 -160 151 -160 94 0
81 171 -18 231 -43 26 -78 24 -110 -8z"/>
<path d="M11459 11415 c-47 -25 -58 -90 -24 -141 58 -89 170 -126 218 -72 46
54 -6 172 -93 209 -42 18 -74 19 -101 4z"/>
<path d="M11959 11117 c-43 -10 -76 -41 -82 -78 -15 -81 154 -160 243 -114 77
40 61 129 -31 175 -47 25 -82 29 -130 17z"/>
<path d="M13055 11087 c-41 -19 -85 -72 -85 -103 0 -92 142 -124 239 -54 22
17 43 41 47 55 8 32 -10 76 -38 94 -31 20 -127 24 -163 8z"/>
<path d="M12524 11023 c-36 -7 -84 -59 -84 -90 0 -106 197 -143 275 -52 26 31
27 48 4 94 -22 45 -106 66 -195 48z"/>
</g>
</svg>
